<?xml version="1.0" encoding="UTF-8" standalone="no"?>
<!-- Created with Inkscape (http://www.inkscape.org/) -->

<svg
   xmlns:dc="http://purl.org/dc/elements/1.1/"
   xmlns:cc="http://creativecommons.org/ns#"
   xmlns:rdf="http://www.w3.org/1999/02/22-rdf-syntax-ns#"
   xmlns:svg="http://www.w3.org/2000/svg"
   xmlns="http://www.w3.org/2000/svg"
   xmlns:sodipodi="http://sodipodi.sourceforge.net/DTD/sodipodi-0.dtd"
   xmlns:inkscape="http://www.inkscape.org/namespaces/inkscape"
   id="svg2"
   version="1.1"
   inkscape:version="0.91 r13725"
   width="2666"
   height="2666"
   viewBox="0 0 2666 2666"
   sodipodi:docname="Draclroborous.svg"
   inkscape:export-filename="C:\Users\craig\Pictures\SVG\Draclroborous.png"
   inkscape:export-xdpi="90"
   inkscape:export-ydpi="90">
  <metadata
     id="metadata8">
    <rdf:RDF>
      <cc:Work
         rdf:about="">
        <dc:format>image/svg+xml</dc:format>
        <dc:type
           rdf:resource="http://purl.org/dc/dcmitype/StillImage" />
        <dc:title></dc:title>
      </cc:Work>
    </rdf:RDF>
  </metadata>
  <defs
     id="defs6" />
  <sodipodi:namedview
     pagecolor="#ffffff"
     bordercolor="#666666"
     borderopacity="1"
     objecttolerance="10"
     gridtolerance="10"
     guidetolerance="10"
     inkscape:pageopacity="0"
     inkscape:pageshadow="2"
     inkscape:window-width="640"
     inkscape:window-height="480"
     id="namedview4"
     showgrid="false"
     inkscape:zoom="0.21155289"
     inkscape:cx="1333"
     inkscape:cy="1333"
     inkscape:current-layer="svg2" />
  <path
     style="fill:#000000"
     d="M 1244.5915,2608.314 C 845.45703,2585.4394 524.75381,2412.529 322.95203,2111.4029 105.13867,1786.3844 63.891673,1380.4451 216.22022,1060.9835 266.39548,955.75652 319.80025,879.67562 405.79943,790.90722 c 45.06032,-46.5113 68.4975,-65.3447 141.22268,-113.4826 47.9579,-31.7441 99.07927,-64.0148 113.60304,-71.7126 l 26.40681,-13.9962 27.44965,21.801 c 37.44581,29.7402 73.4676,45.8301 102.74052,45.8912 l 23.99906,0.051 -14.95799,-29.4928 c -36.67167,-72.3059 -8.30431,-85.328 87.92248,-40.361 56.11929,26.2247 88.03362,35.8675 102.99412,31.1192 8.7999,-2.793 10.1116,-6.316 7.7561,-20.8311 -1.5592,-9.6083 -7.5927,-24.1513 -13.4078,-32.3179 -13.55252,-19.0327 -13.45109,-37.2931 0.2761,-49.6564 9.7746,-8.8035 19.0433,-9.7236 93.6077,-9.2922 274.2214,1.5868 504.181,82.0707 674.0347,235.9066 85.6955,77.6141 200.9505,236.3986 224.2584,308.95638 13.0024,40.4768 27.8052,40.8645 48.9615,1.2822 l 9.7907,-18.3178 -3.7269,30.7751 c -2.0498,16.9263 -3.7057,59.6268 -3.6797,94.89 0.037,51.7009 1.8404,67.5907 9.3087,82.067 27.1659,52.6578 22.2906,243.8193 -8.8965,348.838 -4.3081,14.5066 -18.2279,49.0533 -30.9329,76.7704 -37.9192,82.7238 -36.7701,106.1679 4.5355,92.5358 9.9457,-3.2824 23.3127,-4.3069 29.7043,-2.2767 9.5953,3.0477 6.1653,5.1852 -19.6756,12.261 -56.7742,15.5461 -101.908,48.8069 -153.3641,113.0198 -124.7414,155.6667 -296.2095,240.1542 -531.5585,261.9149 -59.1464,5.4688 -70.8052,5.0298 -133.3588,-5.021 -37.7004,-6.0575 -90.3963,-16.5967 -117.1019,-23.4204 -26.7057,-6.8237 -49.3843,-11.5781 -50.3969,-10.5656 -2.9475,2.9475 63.286,38.7045 100.6412,54.3325 39.8793,16.684 93.464,27.4267 115.9359,23.243 15.3416,-2.8563 16.2886,-1.8445 37.934,40.5288 35.3906,69.2814 84.6975,115.1465 124.3193,115.6414 22.2006,0.2774 0.091,8.6529 -45.8432,17.3665 -184.3058,34.9622 -402.4895,-45.2783 -552.46332,-203.1773 -76.5479,-80.5938 -145.1488,-217.6984 -181.71326,-363.1693 -6.02716,-23.979 -12.17303,-48.2144 -13.6575,-53.8565 -1.48447,-5.6421 9.64701,10.45 24.73667,35.7602 35.37083,59.3284 88.42968,113.8632 132.58398,136.2723 44.40813,22.5378 99.92144,26.5137 145.70251,10.4353 16.66268,-5.852 36.73971,-10.64 44.6156,-10.64 23.21002,0 92.03872,-24.0698 123.65662,-43.2434 107.3215,-65.0816 222.543,-86.0689 296.2225,-53.9564 l 28.0345,12.2187 -28.2516,5.6594 c -56.4462,11.3073 -90.1543,41.1808 -102.4781,90.82 -3.4891,14.0535 -5.1658,46.0413 -3.9719,75.7688 l 2.0665,51.4475 -118.1572,-3.0011 c -125.9311,-3.1985 -134.2498,-0.8591 -61.6501,17.3376 64.0106,16.0438 112.5859,21.8579 182.0002,21.7837 169.0214,-0.1805 302.3513,-53.6718 435.6415,-174.7775 129.2761,-117.4587 205.3073,-272.9096 225.5509,-461.1544 7.7126,-71.7193 -14.4861,-124.843 -74.8641,-179.1571 -17.4563,-15.7031 -30.4638,-30.6141 -28.9054,-33.1354 4.5273,-7.3255 38.4282,1.0473 59.2518,14.634 23.6281,15.4165 31.3905,15.9326 26.9014,1.7886 -1.866,-5.8791 -8.7447,-34.3755 -15.2862,-63.3253 -61.0324,-270.10458 -295.0202,-475.50288 -623.7783,-547.56258 -46.334,-10.1559 -67.5415,-11.6546 -163.5164,-11.5559 -94.3942,0.097 -117.5275,1.7296 -160.61374,11.3344 -170.91357,38.0997 -329.19589,122.2919 -443.97203,236.1537 -132.05276,131.00088 -207.03256,264.87248 -236.85312,422.88608 -18.88222,100.0534 -9.16648,116.8508 39.3185,67.9769 15.77754,-15.9041 29.42421,-28.1788 30.32592,-27.277 0.90176,0.9017 -4.92398,25.0195 -12.94598,53.5951 -24.25502,86.3998 -32.28963,147.128 -29.61006,223.8026 2.11963,60.6528 4.11213,72.4264 18.85571,111.4174 104.72651,276.9608 310.67173,482.2558 593.08697,591.2146 118.79203,45.8312 295.89153,68.2088 440.25173,55.6286 208.2406,-18.147 380.3728,-88.8326 531.2175,-218.143 72.0863,-61.7955 140.9582,-146.3405 202.7319,-248.8673 55.1994,-91.6155 87.5071,-177.9697 108.539,-290.1104 14.9805,-79.8741 13.6388,-251.9666 -2.5571,-328.008 -32.8126,-154.0585 -101.1739,-289.4706 -212.463,-420.85328 -72.0311,-85.0365 -220.1836,-191.5826 -337.5544,-242.7572 l -38.4064,-16.7456 -15.7995,-47.2055 c -8.6897,-25.963 -24.0606,-69.7098 -34.1575,-97.2151 -10.097,-27.5053 -17.6288,-50.0096 -16.7374,-50.0096 0.8914,0 19.4721,8.2479 41.2905,18.3286 21.8183,10.0807 40.8816,17.1166 42.3628,15.6354 8.489,-8.489 -72.1132,-129.9827 -123.3161,-185.8776 l -29.9053,-32.6457 17.0823,3.2154 c 32.2057,6.0621 136.8342,37.2652 187.2337,55.8384 66.1224,24.3673 202.5775,91.3221 260.7004,127.9186 117.8426,74.1984 247.069,188.7009 321.4463,284.8214 134.0718,173.2657 210.6413,360.03168 246.0324,600.11478 42.6935,289.62 -45.3565,600.0763 -234.2089,825.7991 -53.4938,63.9376 -175.9806,180.0378 -230.6861,218.6577 -170.1263,120.1027 -362.0736,200.7293 -571.9043,240.2258 -43.7442,8.2339 -167.2585,23.9336 -176.9255,22.4887 -2.8384,-0.4243 -35.1664,-2.4911 -71.8401,-4.5929 z M 997.31855,906.93152 c -22.38615,-33.1228 -37.14869,-67.3007 -37.28426,-86.3196 -0.0825,-11.5699 -3.57119,-17.6541 -13.02399,-22.7131 -7.10126,-3.8004 -18.4574,-14.1812 -25.23589,-23.0682 -11.87271,-15.5659 -44.43981,-75.5287 -42.22445,-77.744 0.59453,-0.5946 19.16367,8.0068 41.2648,19.1141 43.54815,21.886 70.23223,25.5364 89.25744,12.2106 6.2698,-4.3916 11.3997,-12.4796 11.3997,-17.9735 0,-6.5402 14.3204,-20.6068 41.4776,-40.7427 40.8238,-30.269 42.0098,-30.7538 75.2354,-30.7538 18.5667,0 48.2876,2.5303 66.0463,5.6229 25.6012,4.4582 32.9999,7.8638 35.7228,16.4429 2.173,6.8465 1.0081,11.6289 -3.172,13.0222 -3.6333,1.2112 -18.9431,8.6917 -34.0217,16.6235 -103.9219,54.6661 -171.7937,134.7517 -179.7801,212.1322 -1.6189,15.686 -4.3517,28.5155 -6.0728,28.5101 -1.7211,0 -10.5361,-10.9692 -19.58885,-24.3636 z M 769.41409,628.61832 c -10.27384,-5.4283 -29.89298,-22.349 -43.59809,-37.6014 -23.53858,-26.1964 -26.49565,-27.8571 -53.40718,-29.9936 -15.66885,-1.244 -39.42872,-7.5577 -52.79969,-14.0305 -24.36245,-11.7937 -80.2808,-54.2311 -80.2808,-60.9266 0,-1.9608 16.11254,-3.5651 35.80566,-3.5651 33.59281,0 36.84094,-1.0352 52.55665,-16.7509 l 16.75098,-16.751 -13.60458,-11.4596 c -7.48249,-6.3027 -16.53424,-17.2298 -20.11494,-24.2825 -6.83528,-13.4628 -15.20652,-51.2918 -11.35044,-51.2918 1.23461,0 11.88835,5.6021 23.67489,12.4491 27.55584,16.0077 79.84219,25.3586 117.91688,21.0884 28.93034,-3.2446 105.57164,-21.025 110.08598,-25.5393 1.23014,-1.2301 -5.78671,-9.2812 -15.59302,-17.8912 -18.0112,-15.814 -55.05628,-79.5435 -55.05628,-94.7146 0,-6.1871 6.2739,-3.7101 25.39263,10.0253 28.4896,20.4677 73.94392,38.1612 98.03567,38.1612 l 15.97167,0 -12.88049,-15.3075 c -13.10635,-15.576 -34.19412,-65.3656 -34.19412,-80.7345 0,-6.7218 2.89943,-5.755 14.10527,4.7029 74.83902,69.8442 198.36326,85.1375 302.72136,37.4792 64.9147,-29.6453 163.1212,-112.857 202.8921,-171.9133 l 18.0285,-26.7709 5.5093,19.8414 c 11.1456,40.1406 5.172,70.1611 -19.1235,96.1061 l -13.7789,14.7144 12.8229,-3.7881 c 29.1951,-8.6249 45.0827,-17.5067 56.222,-31.4306 l 11.7817,-14.7269 -2.523,46.3967 c -1.6582,30.4933 -6.0271,54.3184 -12.7459,69.5075 l -10.223,23.1108 35.1906,5.5412 c 19.3549,3.0476 38.6823,8.4389 42.9497,11.9805 6.2751,5.2078 62.5509,83.7176 75.5652,105.4201 1.8131,3.0236 -8.0717,-0.1288 -21.9662,-7.005 -19.0538,-9.4296 -29.6667,-11.6762 -43.1812,-9.1409 l -17.9184,3.3615 17.2095,24.1602 c 24.3101,34.1288 52.0058,91.2433 69.5228,143.3711 8.2462,24.5395 14.2032,45.4071 13.2378,46.3725 -0.9654,0.9655 -22.4024,-8.6142 -47.6378,-21.2882 -62.5551,-31.417 -139.458,-57.4203 -216.4763,-73.1974 -52.3043,-10.7144 -80.3249,-13.3344 -149.0458,-13.9359 -88.6412,-0.7759 -175.6734,3.6586 -191.2519,9.7446 -12.62445,4.9319 -22.19301,25.2097 -28.82521,61.0864 -3.08388,16.6823 -5.60707,31.0325 -5.60707,31.8893 0,0.8568 -13.27179,-4.4562 -29.49282,-11.8067 -100.53682,-45.5582 -135.5109,-55.3932 -149.00288,-41.9013 -9.21493,9.215 -7.42542,46.8127 3.61058,75.857 8.88075,23.3722 8.99692,25.6804 1.2823,25.4742 -4.6658,-0.1247 -16.88923,-4.668 -27.16311,-10.0963 z m 403.41281,-224.927 c 11.3084,-5.1373 27.8152,-17.6029 36.6818,-27.7013 15.2821,-17.4056 18.2995,-18.5509 57.9937,-22.0134 23.03,-2.009 39.9911,-5.4629 37.6914,-7.6754 -6.4679,-6.2226 -61.7966,-15.1111 -94.0636,-15.1111 -32.1549,0 -97.7856,15.1826 -123.8139,28.6424 l -16.8204,8.6981 21.9601,19.4878 c 19.0627,16.9168 28.1512,20.9652 54.681,24.3576 2.821,0.3607 14.3815,-3.5474 25.6899,-8.6847 z"
     id="path4138"
     inkscape:connector-curvature="0" />
</svg>
